<svg width="48" height="48" viewBox="0 0 48 48" fill="none" xmlns="http://www.w3.org/2000/svg">
<path fill-rule="evenodd" clip-rule="evenodd" d="M22.9162 0.0453528C12.2024 0.851625 3.61398 7.75122 0.804419 17.8086C-1.31017 25.3787 0.844255 34.437 6.09178 40.038C6.28334 40.2427 6.45147 40.4419 6.46533 40.4807C6.5163 40.6236 8.39774 42.3258 9.19093 42.9465C19.3077 50.8654 34.2288 49.3057 42.4169 39.4735C51.4347 28.6446 49.2831 12.5291 37.7345 4.40534C33.4977 1.425 27.6085 -0.307749 22.9162 0.0453528ZM26.6538 2.96175C33.4366 3.96263 39.0706 7.80886 42.5296 13.7995C43.1728 14.9133 44.3122 17.5023 44.3122 17.8499C44.3122 17.8682 44.132 17.7449 43.9117 17.5757C41.3074 15.5755 37.3947 16.1311 35.8695 18.7179C35.6191 19.1427 35.6371 19.1533 36.3522 19.0023C37.3362 18.7943 39.6546 18.8709 40.1303 19.1269C40.2291 19.18 40.3174 19.1257 40.5191 18.8876C40.719 18.6514 40.8348 18.5795 41.0162 18.5795H41.2525L41.1002 18.9275C40.9444 19.2838 40.9584 19.4277 41.1496 19.4277C41.8411 19.4277 44.3333 20.7359 44.9291 21.4117C45.1238 21.6325 45.0379 21.5842 44.5932 21.2228C41.5607 18.7578 36.8074 20.1583 35.9681 23.764L35.9189 23.9755L36.3731 23.7423C37.2786 23.2772 38.5533 22.9425 39.7829 22.847L40.4207 22.7974L40.6761 22.3269C40.9952 21.7391 41.0549 21.7391 41.1328 22.3269L41.1951 22.7974L42.01 22.8426C42.8959 22.8918 44.1968 23.1229 44.8524 23.3479L45.2655 23.4898L45.2894 24.3306C45.3333 25.879 45.088 27.5626 44.5087 29.6893C44.2066 30.798 43.4427 32.8222 43.5075 32.3418C43.6876 31.0094 43.7186 30.4437 43.678 29.2215C43.6382 28.0264 43.5071 26.9922 43.3792 26.8627C43.3552 26.8385 43.1605 26.9456 42.9467 27.101C42.4864 27.4351 42.464 27.3639 42.8297 26.7329C43.1429 26.1928 43.1386 26.1362 42.7327 25.4622C42.1844 24.5519 41.7786 24.1435 41.6964 24.4198C41.6743 24.494 41.521 24.8845 41.3556 25.2873C41.1902 25.6901 40.9774 26.318 40.8825 26.6827L40.7101 27.3459L41.06 27.9503C41.473 28.6632 41.4636 28.7175 40.995 28.3292C40.5152 27.9319 40.4869 27.9852 40.4302 29.3875C40.3841 30.5315 40.3808 30.5491 40.3287 29.9516L40.275 29.3348L39.109 28.1913C38.4676 27.562 37.7638 26.891 37.5449 26.6997L37.1469 26.3521L36.8203 26.6192C36.6406 26.766 36.3467 26.9784 36.1673 27.0913L35.8408 27.2968L34.8109 26.3882C34.2446 25.8887 33.733 25.4799 33.674 25.4799C33.6151 25.4799 32.8875 26.0871 32.057 26.8292C31.2265 27.5713 30.4511 28.2605 30.3335 28.3606L30.1201 28.543L29.8188 28.3415C29.653 28.2305 29.482 28.1399 29.4384 28.1399C29.3734 28.1399 27.7757 29.0425 27.1797 29.416L27.019 29.5166L27.1805 30.1334C27.2693 30.4725 27.364 30.7725 27.3912 30.7999C27.4183 30.8274 27.9385 30.5209 28.547 30.119L29.6534 29.3881L30.6206 30.1257C31.1931 30.5623 31.6083 30.8301 31.6379 30.782C31.9473 30.282 33.691 27.9126 33.7508 27.9108C33.7943 27.9096 34.2573 28.2509 34.7797 28.6691L35.7293 29.4296L36.2202 28.9817L36.7111 28.5339L36.9837 28.7524C37.3395 29.0376 39.9364 31.441 40.2264 31.7535C40.4105 31.9518 40.4562 32.0773 40.4837 32.4601L40.5169 32.9257L41.0733 33.3851C42.0387 34.1825 42.4249 34.6744 42.2798 34.9227C42.0287 35.3524 41.8748 35.5174 41.8729 35.3587C41.87 35.0968 41.3451 34.3335 40.7854 33.7767C40.1403 33.1347 40.1471 33.137 40.0399 33.5391C39.9296 33.9534 39.8118 33.8567 39.8118 33.3518V32.9444L39.5086 32.8526C39.1231 32.736 37.9144 32.5763 37.8568 32.6345C37.7296 32.763 38.5322 34.3773 39.0911 35.1173C39.4187 35.5513 39.4179 35.5606 39.068 35.4124C37.06 34.5617 32.6262 34.1166 28.4244 34.3442L27.3939 34.3998L27.3047 35.0168C27.2555 35.3561 27.1981 35.6794 27.1768 35.7355C27.1451 35.8188 27.5345 35.8294 29.3369 35.7949C33.3058 35.7187 37.2569 36.0716 39.9643 36.7444C40.9495 36.9892 40.9463 36.9862 40.5837 37.3443L40.2879 37.6362L39.5123 37.4737C36.5479 36.8528 31.7002 36.55 27.9639 36.7523L26.8333 36.8135L26.5761 37.5051C26.4346 37.8857 26.3256 38.1995 26.3338 38.2024C26.342 38.2056 27.018 38.1792 27.8362 38.1438C31.1974 37.9982 35.2696 38.222 38.0956 38.7079C39.2158 38.9006 39.2172 38.9017 38.7173 39.2965L38.3125 39.616L37.3649 39.4714C34.1085 38.974 30.8516 38.8487 26.7068 39.0612L25.7679 39.1094L25.4627 39.5639C25.2946 39.8138 25.0487 40.1434 24.9159 40.2962L24.6748 40.5739L25.1684 40.5263C27.7649 40.2759 33.8133 40.4391 36.4365 40.8305C36.8587 40.8934 36.849 40.9244 36.284 41.3184L35.8076 41.6508L34.5489 41.529C31.9994 41.2821 29.5632 41.2154 26.9971 41.3219C23.957 41.4485 23.8775 41.4635 23.2673 42.0297C22.9904 42.2867 22.6178 42.6031 22.4397 42.733C22.0269 43.0334 22.0167 43.0292 22.9587 42.9442C25.8226 42.6852 32.4218 42.6773 33.2899 42.9319C33.5145 42.9978 33.5071 43.0046 32.9086 43.2868C31.8973 43.7637 31.8527 43.7731 30.9635 43.6952C30.523 43.6565 28.7554 43.6417 27.0352 43.6624C23.236 43.708 21.8445 43.8317 19.3884 44.3424C18.503 44.5265 18.2708 44.5038 17.0385 44.1118L16.3564 43.8951L17.0428 43.7974C26.6929 42.4251 29.9953 29.9739 22.1991 24.3567C14.4986 18.8081 3.86041 25.8802 5.98399 35.1361C6.04609 35.4067 6.09705 35.6435 6.09705 35.6622C6.09705 35.8519 4.87309 33.2192 4.83169 32.9407C4.58292 31.2634 5.52901 28.134 6.82893 26.335C7.30441 25.6767 7.31262 25.6167 7.06052 24.6318C6.76605 23.4817 5.868 21.5094 5.63855 21.5094C5.45285 21.5094 4.26638 23.567 4.26638 23.8891C4.26638 23.9525 4.45502 24.2536 4.68583 24.558C5.26578 25.3234 5.24723 25.3716 4.53859 24.9403C4.0055 24.6158 4.06428 24.6176 4.00745 24.9237C3.71318 26.5094 3.92173 30.3458 4.38648 31.8954C4.57901 32.5374 4.0385 31.2255 3.74169 30.3308C2.7872 27.4527 2.47379 24.3286 2.84871 21.4322C3.01489 20.1473 2.88875 20.2485 4.33453 20.2424L5.54971 20.2373L5.63641 19.794C5.74537 19.2372 5.77974 19.2404 6.09412 19.8354L6.35051 20.3202L7.15816 20.4479C8.22844 20.617 9.26006 20.9648 10.4344 21.5522C11.5416 22.1058 11.4904 22.1068 11.3641 21.5356C10.6607 18.3587 6.94043 16.4477 4.04495 17.776C3.45308 18.0474 3.48393 17.9554 4.09259 17.6337C4.72605 17.299 6.35422 16.8063 6.82756 16.8063C6.83635 16.8063 6.8137 16.6763 6.77718 16.5172C6.68501 16.1155 6.68579 16.1124 6.88517 16.1124C6.9994 16.1124 7.14644 16.2174 7.29641 16.4061L7.52976 16.6996L8.12924 16.6372C9.11966 16.534 10.61 16.7155 11.4699 17.0442C11.9159 17.2145 11.946 17.1989 11.8142 16.8665C10.8632 14.4696 7.80782 13.345 5.35893 14.4907L4.88793 14.7112L5.31089 14.0048C9.36785 7.23075 15.1969 3.47058 22.6492 2.81984C23.3307 2.76023 25.9079 2.85161 26.6538 2.96175ZM19.4179 6.38717L19.0527 6.76198L19.4179 7.12061C19.8395 7.5349 19.7826 7.53608 20.2458 7.10226L20.6051 6.76593L20.238 6.38914C19.7932 5.93262 19.8607 5.93282 19.4179 6.38717ZM26.6794 6.85949C26.5914 7.07127 26.4683 7.20568 26.2789 7.29706C25.9364 7.46207 25.938 7.47154 26.3477 7.7228C26.5914 7.87221 26.7031 8.00011 26.7501 8.18367L26.8153 8.43789L26.9634 8.13097C27.0665 7.91781 27.2123 7.77293 27.4422 7.65569L27.7727 7.48714L27.4623 7.32687C27.258 7.22167 27.0985 7.0616 26.9965 6.85949C26.8089 6.48763 26.8339 6.48763 26.6794 6.85949ZM33.9966 7.47983C32.8656 7.67227 32.2812 8.05064 30.506 9.73957C30.1912 10.039 29.8075 10.4029 29.653 10.5486L29.3722 10.8135L28.2801 10.639C26.9079 10.4197 26.9585 10.445 27.2873 10.1404L27.5634 9.88463L27.2752 9.52897C26.919 9.09001 26.9962 9.07817 26.2922 9.67858L25.7017 10.1821L24.8429 10.0631C24.3705 9.99753 23.8861 9.92312 23.7662 9.89766L23.5483 9.85148L23.8704 9.51969C24.2141 9.1656 24.2141 9.1658 23.8745 8.7302C23.6191 8.40275 23.6541 8.3915 22.8908 9.04974L22.2298 9.62015L20.5135 9.32765L18.7973 9.03534L18.0344 9.55542C17.6149 9.84161 17.2742 10.1069 17.2771 10.145C17.28 10.1831 18.2412 10.6078 19.4128 11.0888C20.5846 11.5696 22.3499 12.294 23.3358 12.6984C24.3217 13.103 25.317 13.5185 25.5478 13.6219L25.9673 13.81L25.7384 14.0066C25.5086 14.2042 25.0274 14.6579 23.7545 15.8779C22.4545 17.1235 22.2042 17.346 22.1027 17.3452C22.0466 17.3448 21.4688 17.2084 20.8186 17.0422C19.4772 16.6994 19.6344 16.6759 18.8205 17.3391C18.2658 17.7912 18.1988 17.6973 19.5409 18.347C20.1808 18.6569 20.7137 18.9178 20.7254 18.9271C20.7371 18.9364 20.5721 19.2994 20.3585 19.7336C20.1449 20.1678 19.9871 20.5405 20.0078 20.5614C20.0414 20.5953 21.1986 20.2343 21.5118 20.0924C21.6106 20.0478 21.6719 20.1637 21.8414 20.7155C21.956 21.0886 22.1419 21.6805 22.2546 22.031L22.4592 22.6681L22.954 22.2154L23.4487 21.7626L23.5291 20.5341L23.6098 19.3057L23.9495 18.9913C24.1364 18.8184 24.804 18.2351 25.4334 17.6953C26.0628 17.1555 26.8563 16.4744 27.1971 16.1818C27.5378 15.8891 27.8337 15.6499 27.8546 15.6499C27.9122 15.6499 28.5285 18.7933 28.9805 21.3937C29.2367 22.8681 29.6774 25.1687 29.7098 25.2018C29.7262 25.2186 30.0406 24.9599 30.4087 24.6269C30.7768 24.2941 31.0926 24.0111 31.1105 23.9982C31.1283 23.9854 31.2033 23.1513 31.2769 22.1447C31.3505 21.1379 31.413 20.3113 31.4159 20.3076C31.4189 20.3038 31.7645 19.9981 32.1839 19.628C33.0662 18.8501 33.033 18.9311 32.6438 18.5049L32.3409 18.1734L31.902 18.6032C31.6606 18.8395 31.4595 19.0264 31.4554 19.0183C31.3361 18.787 31.5966 17.2346 31.7787 17.0913C33.0019 16.129 33.024 16.0924 32.644 15.6499L32.3462 15.3029L32.0142 15.6306C31.6264 16.0135 31.5466 16.036 31.6028 15.7462C31.6256 15.6296 31.6811 14.875 31.7264 14.0694C31.8365 12.1023 31.7705 12.2873 32.6282 11.5497C34.4571 9.97701 35.131 9.05132 35.2147 7.99695L35.2542 7.50056L34.9585 7.45121C34.6119 7.39338 34.4819 7.39733 33.9966 7.47983ZM14.384 7.63793C14.1252 8.51526 13.9411 8.7371 13.3069 8.93546L12.873 9.07106L13.3211 9.23626C13.8472 9.43008 14.1112 9.68983 14.2979 10.1967L14.4332 10.5646L14.6121 10.1197C14.8384 9.55621 15.3072 9.19758 15.8415 9.17942C16.1412 9.16916 16.027 9.05211 15.6126 8.94494C15.1178 8.81684 14.7673 8.48289 14.6349 8.01314C14.5234 7.6178 14.4308 7.47944 14.384 7.63793ZM10.8394 11.2795C10.6275 11.5074 10.6311 11.5734 10.8666 11.797L11.0595 11.9802L11.2891 11.748L11.519 11.5157L11.3288 11.3083C11.0968 11.0555 11.0501 11.0527 10.8394 11.2795ZM37.194 12.4888C37.1717 12.5523 37.1137 12.7353 37.0649 12.8956C36.8997 13.438 36.6306 13.6531 35.7691 13.9304C35.706 13.9505 35.8777 14.0494 36.1505 14.1499C36.7127 14.3573 36.9278 14.5782 37.1126 15.1377L37.2362 15.5126L37.3694 15.1145C37.5519 14.5697 37.8413 14.2878 38.398 14.1126C38.6533 14.0322 38.8073 13.9501 38.7439 13.928C38.681 13.9061 38.4998 13.8479 38.3414 13.7988C37.954 13.6782 37.6523 13.4082 37.5076 13.0525C37.4418 12.8908 37.3535 12.6719 37.3114 12.566C37.2547 12.4239 37.2239 12.4035 37.194 12.4888ZM18.0726 12.9025C18.0726 13.0833 17.7536 13.4277 17.4782 13.5439L17.2148 13.6553L17.5177 13.8067C17.7235 13.9097 17.8826 14.0723 18.0143 14.3143L18.208 14.6704L18.2603 14.4298C18.3138 14.1834 18.6881 13.7995 18.8748 13.7995C19.1008 13.7995 19.0504 13.6511 18.7786 13.5169C18.5956 13.4265 18.4415 13.271 18.3523 13.0862C18.2123 12.7967 18.0726 12.7049 18.0726 12.9025ZM13.0038 14.3852L12.6353 14.8166L13.0243 15.21L13.4135 15.6031L13.7726 15.2956C14.3469 14.8036 14.3498 14.7848 13.9169 14.3407C13.449 13.8605 13.4521 13.8603 13.0038 14.3852ZM16.2455 16.8579L16.0854 17.0635L16.2939 17.2836L16.5025 17.5037L16.7309 17.2729L16.9592 17.042L16.778 16.8472C16.548 16.5997 16.4447 16.6019 16.2455 16.8579ZM13.6035 18.9267C13.5508 19.1393 13.1655 19.5048 12.9942 19.5048C12.8099 19.5048 12.8771 19.6148 13.1352 19.7362C13.2707 19.7997 13.4502 19.9631 13.534 20.0993C13.7265 20.4118 13.7318 20.4112 13.9155 20.0636C14.0202 19.865 14.1455 19.7516 14.3158 19.7008C14.6277 19.6081 14.6265 19.5636 14.3088 19.4105C14.1561 19.3369 14.0016 19.1764 13.9239 19.0106C13.7712 18.6855 13.6699 18.6591 13.6035 18.9267ZM33.799 21.765C33.5885 21.9915 33.5909 22.059 33.8174 22.2742L34.0015 22.4491L34.237 22.273C34.5188 22.0624 34.5285 21.9752 34.2958 21.7541C34.073 21.5425 34.0044 21.5439 33.799 21.765ZM26.385 22.5523L26.2037 22.7471L26.4098 22.9553L26.6158 23.1636L26.8144 22.9628C27.0075 22.7674 27.0094 22.7566 26.8817 22.5598C26.7179 22.307 26.6144 22.3054 26.385 22.5523ZM17.348 24.453C19.9668 24.8531 22.5731 26.6685 22.5731 28.0928C22.5731 28.5734 22.79 28.8337 23.1905 28.8337C23.4604 28.8337 23.7172 29.1013 23.7172 29.3828C23.7172 29.6187 23.668 29.6431 23.0306 29.7239C22.2839 29.8186 22.0878 29.9949 21.9246 30.7188L21.8387 31.1003L21.4727 30.3718C20.3774 28.1909 18.5975 26.1729 16.5513 24.7923C16.1971 24.5533 15.8909 24.3413 15.871 24.3211C15.8239 24.2736 16.6657 24.3488 17.348 24.453ZM13.6386 24.8906C13.5812 24.9691 13.3311 25.3047 13.0829 25.6359C11.7283 27.445 10.7726 29.8543 10.5037 32.1387L10.4096 32.9381L9.87418 32.8864C9.57972 32.858 8.99546 32.7757 8.57602 32.7038L7.81329 32.5731L7.83243 31.9601C7.92108 29.1195 10.2192 26.0294 13.0284 24.9737C13.7243 24.7121 13.7741 24.7054 13.6386 24.8906ZM16.1656 26.2102C17.8791 27.5091 19.3601 29.2735 20.2124 31.0311C20.7319 32.1024 20.7317 32.1555 20.2083 32.2777C18.8336 32.5986 17.2968 32.8714 16.5101 32.9338C16.21 32.9574 16.2057 32.9541 16.1529 32.6497C15.9672 31.5754 15.48 26.6819 15.4793 25.882C15.4791 25.7144 15.5673 25.7566 16.1656 26.2102ZM14.184 26.8485C14.1889 27.6497 14.4824 30.7567 14.6802 32.1048C14.7421 32.5258 14.7927 32.916 14.7927 32.9722C14.7927 33.0534 14.4867 33.0743 13.2942 33.0743H11.7958L11.8464 32.5238C12.004 30.8098 12.789 28.5552 13.7339 27.1025C14.1043 26.5333 14.1817 26.4895 14.184 26.8485ZM21.1829 34.4427C21.272 34.941 21.3667 35.5569 21.3928 35.8113C21.4723 36.5773 21.5559 36.7512 22.0074 37.0883C22.9472 37.7899 22.949 38.2253 22.0158 39.1536L21.5235 39.6433L20.8172 39.2693L20.1109 38.8952L20.1007 38.4823C20.0873 37.9384 19.8877 37.7588 19.1004 37.5815C18.4154 37.4276 18.1554 37.2337 17.933 36.7117C17.7393 36.2563 17.6802 36.2046 17.1988 36.0688C16.7327 35.9374 16.6015 35.7339 16.4521 34.9106L16.3447 34.3185L16.7319 34.2712C18.0178 34.1133 18.9525 33.9585 19.7729 33.7677C21.1345 33.4513 20.9931 33.3836 21.1829 34.4427ZM9.41217 34.2224L10.4008 34.3464L10.4944 35.0788C10.5824 35.768 10.7476 36.4906 11.0101 37.3344L11.1243 37.7011L10.8474 37.818C10.6951 37.8823 10.4043 38.0382 10.2015 38.1646C9.7166 38.4659 9.69063 38.4606 9.36687 37.9883C8.54478 36.79 7.79962 34.9444 7.77678 34.0505C7.7758 34.015 7.92089 34.0112 8.09917 34.0422C8.27745 34.0732 8.86834 34.1543 9.41217 34.2224ZM15.0188 34.7914C15.0622 34.9961 15.0977 35.1905 15.0977 35.2237C15.0977 35.2568 14.8833 35.2385 14.621 35.183C13.5728 34.961 13.3213 35.0346 12.9353 35.6759C12.6062 36.2224 12.2198 36.6173 12.1684 36.4596C12.0931 36.2283 11.9066 35.2513 11.8605 34.8475L11.8121 34.4235L13.376 34.4214L14.9397 34.4192L15.0188 34.7914ZM19.9033 40.8607C19.9033 40.944 18.4733 41.555 18.2783 41.555C18.2447 41.555 18.3939 41.299 18.6102 40.986L19.0033 40.417L19.4532 40.6132C19.7008 40.7211 19.9033 40.8325 19.9033 40.8607Z" fill="#267FFA"/>
</svg>
